<svg xmlns="http://www.w3.org/2000/svg" viewBox="0 0 494.16 286.45" width="494.2" height="286.4">
<path fill="#FFA400" fill-rule="evenodd" d="M22.43 204.11C22.43 204.11 6.00 157.35 20.70 122.83C29.74 101.59 44.46 75.38 47.64 66.77C59.35 35.13 59.35 6.00 59.35 6.00C64.46 38.05 66.73 78.83 62.31 92.97C53.05 122.63 47.55 126.49 34.93 154.58C22.86 181.43 22.43 204.11 22.43 204.11"/>
<path fill="#FFA400" fill-rule="evenodd" d="M41.95 242.20C41.95 242.20 25.95 192.45 40.22 160.92C49.74 139.89 63.98 113.47 67.16 104.86C78.87 73.23 78.87 44.10 78.87 44.10C83.98 76.14 86.25 116.93 81.83 131.07C72.57 160.73 67.07 164.58 54.44 192.68C42.38 219.53 41.95 242.20 41.95 242.20"/>
<path fill="#FF6C0E" fill-rule="evenodd" d="M60.69 280.45C60.69 280.45 43.50 236.33 60.25 198.03C70.03 175.68 82.39 150.82 85.90 143.11C99.89 112.41 97.61 82.34 97.61 82.34C102.72 114.39 104.99 155.17 100.57 169.31C91.31 198.97 85.81 202.83 73.19 230.92C61.12 257.77 60.69 280.45 60.69 280.45"/>
<path fill="#FFA400" fill-rule="nonzero" d="M148.09 244.14L149.75 244.14L149.75 255.70L155.45 255.70L155.45 257.09L148.09 257.09L148.09 244.14"/>
<path fill="#FFA400" fill-rule="nonzero" d="M162.95 254.75L162.95 252.09C159.71 252.47 158.62 253.26 158.62 254.49C158.62 255.58 159.36 256.02 160.31 256.02C161.24 256.02 162.02 255.57 162.95 254.75M157.02 254.60C157.02 252.51 158.83 251.47 162.95 251.02C162.95 249.79 162.53 248.60 160.96 248.60C159.84 248.60 158.83 249.13 158.07 249.63L157.43 248.52C158.32 247.94 159.68 247.26 161.23 247.26C163.59 247.26 164.59 248.82 164.59 251.21L164.59 257.09L163.23 257.09L163.10 255.94L163.04 255.94C162.12 256.70 161.05 257.33 159.85 257.33C158.23 257.33 157.02 256.33 157.02 254.60"/>
<path fill="#FFA400" fill-rule="nonzero" d="M171.77 244.14L179.29 244.14L179.29 245.54L173.43 245.54L173.43 249.90L178.40 249.90L178.40 251.30L173.43 251.30L173.43 257.09L171.77 257.09L171.77 244.14"/>
<path fill="#FFA400" fill-rule="nonzero" d="M180.73 253.58L180.73 247.50L182.37 247.50L182.37 253.37C182.37 255.15 182.91 255.92 184.19 255.92C185.18 255.92 185.87 255.43 186.78 254.30L186.78 247.50L188.42 247.50L188.42 257.09L187.06 257.09L186.93 255.59L186.87 255.59C185.98 256.63 185.01 257.33 183.69 257.33C181.65 257.33 180.73 256.02 180.73 253.58"/>
<path fill="#FFA400" fill-rule="nonzero" d="M197.42 251.52C197.42 249.60 196.55 248.56 195.04 248.56C193.68 248.56 192.47 249.64 192.27 251.52L197.42 251.52M190.67 252.31C190.67 249.19 192.79 247.26 195.01 247.26C197.48 247.26 198.87 249.02 198.87 251.76C198.87 252.11 198.84 252.45 198.79 252.68L192.28 252.68C192.40 254.72 193.65 256.03 195.49 256.03C196.42 256.03 197.18 255.74 197.90 255.27L198.48 256.33C197.64 256.88 196.61 257.33 195.29 257.33C192.72 257.33 190.67 255.46 190.67 252.31"/>
<path fill="#FFA400" fill-rule="nonzero" d="M201.05 247.50L202.40 247.50L202.54 249.25L202.59 249.25C203.26 248.03 204.25 247.26 205.34 247.26C205.77 247.26 206.07 247.32 206.37 247.46L206.07 248.89C205.73 248.78 205.52 248.73 205.13 248.73C204.31 248.73 203.34 249.31 202.68 250.93L202.68 257.09L201.05 257.09L201.05 247.50"/>
<path fill="#FFA400" fill-rule="nonzero" d="M207.39 256.22L212.47 248.82L207.95 248.82L207.95 247.50L214.54 247.50L214.54 248.37L209.46 255.77L214.71 255.77L214.71 257.09L207.39 257.09L207.39 256.22"/>
<path fill="#FFA400" fill-rule="nonzero" d="M222.09 254.75L222.09 252.09C218.85 252.47 217.75 253.26 217.75 254.49C217.75 255.58 218.50 256.02 219.45 256.02C220.38 256.02 221.15 255.57 222.09 254.75M216.15 254.60C216.15 252.51 217.97 251.47 222.09 251.02C222.08 249.79 221.67 248.60 220.09 248.60C218.97 248.60 217.97 249.13 217.21 249.63L216.57 248.52C217.46 247.94 218.82 247.26 220.37 247.26C222.72 247.26 223.72 248.82 223.72 251.21L223.72 257.09L222.37 257.09L222.23 255.94L222.18 255.94C221.26 256.70 220.18 257.33 218.98 257.33C217.37 257.33 216.15 256.33 216.15 254.60"/>
<path fill="#FFA400" fill-rule="nonzero" d="M236.88 254.65L236.88 249.63C236.06 248.90 235.31 248.63 234.52 248.63C232.98 248.63 231.75 250.11 231.75 252.29C231.75 254.59 232.71 255.96 234.40 255.96C235.30 255.96 236.07 255.53 236.88 254.65M230.06 252.31C230.06 249.20 232.04 247.26 234.24 247.26C235.36 247.26 236.10 247.68 236.95 248.38L236.88 246.73L236.88 243.04L238.52 243.04L238.52 257.09L237.16 257.09L237.03 255.96L236.97 255.96C236.22 256.70 235.19 257.33 234.04 257.33C231.63 257.33 230.06 255.50 230.06 252.31"/>
<path fill="#FFA400" fill-rule="nonzero" d="M247.53 251.52C247.53 249.60 246.65 248.56 245.14 248.56C243.78 248.56 242.57 249.64 242.37 251.52L247.53 251.52M240.77 252.31C240.77 249.19 242.89 247.26 245.11 247.26C247.58 247.26 248.97 249.02 248.97 251.76C248.97 252.11 248.94 252.45 248.89 252.68L242.39 252.68C242.50 254.72 243.75 256.03 245.60 256.03C246.52 256.03 247.29 255.74 248.00 255.27L248.59 256.33C247.74 256.88 246.71 257.33 245.40 257.33C242.82 257.33 240.77 255.46 240.77 252.31"/>
<path fill="#FFA400" fill-rule="nonzero" d="M251.15 255.16L251.15 243.04L252.79 243.04L252.79 255.28C252.79 255.78 253.01 255.98 253.24 255.98C253.34 255.98 253.42 255.98 253.60 255.94L253.82 257.17C253.59 257.26 253.31 257.33 252.88 257.33C251.66 257.33 251.15 256.55 251.15 255.16"/>
<path fill="#FFA400" fill-rule="nonzero" d="M259.41 255.40L260.40 254.27C261.34 255.24 262.64 255.88 264.00 255.88C265.71 255.88 266.73 255.03 266.73 253.77C266.73 252.45 265.78 252.03 264.55 251.50L262.68 250.68C261.46 250.16 260.03 249.25 260.03 247.34C260.03 245.36 261.77 243.91 264.14 243.91C265.69 243.91 267.07 244.57 267.98 245.51L267.10 246.57C266.30 245.82 265.35 245.35 264.14 245.35C262.68 245.35 261.71 246.09 261.71 247.25C261.71 248.49 262.85 248.96 263.87 249.39L265.73 250.19C267.24 250.83 268.42 251.72 268.42 253.65C268.42 255.69 266.71 257.33 263.97 257.33C262.14 257.33 260.55 256.58 259.41 255.40"/>
<path fill="#FFA400" fill-rule="nonzero" d="M276.13 254.75L276.13 252.09C272.89 252.47 271.80 253.26 271.80 254.49C271.80 255.58 272.54 256.02 273.49 256.02C274.43 256.02 275.20 255.57 276.13 254.75M270.20 254.60C270.20 252.51 272.01 251.47 276.13 251.02C276.13 249.79 275.72 248.60 274.14 248.60C273.02 248.60 272.01 249.13 271.25 249.63L270.61 248.52C271.50 247.94 272.86 247.26 274.41 247.26C276.77 247.26 277.77 248.82 277.77 251.21L277.77 257.09L276.42 257.09L276.28 255.94L276.22 255.94C275.30 256.70 274.23 257.33 273.03 257.33C271.41 257.33 270.20 256.33 270.20 254.60"/>
<path fill="#FFA400" fill-rule="nonzero" d="M287.21 252.16C287.21 250.05 286.48 248.63 284.66 248.63C283.85 248.63 283.00 249.08 282.08 249.94L282.08 254.96C282.93 255.69 283.80 255.96 284.43 255.96C286.03 255.96 287.21 254.53 287.21 252.16M281.96 256.10L281.90 256.10L281.75 257.09L280.45 257.09L280.45 243.04L282.08 243.04L282.08 246.88L282.03 248.60C282.91 247.84 283.99 247.26 285.06 247.26C287.56 247.26 288.90 249.19 288.90 252.14C288.90 255.42 286.92 257.33 284.72 257.33C283.82 257.33 282.82 256.87 281.96 256.10"/>
<path fill="#FFA400" fill-rule="nonzero" d="M297.41 251.52C297.41 249.60 296.54 248.56 295.03 248.56C293.67 248.56 292.46 249.64 292.26 251.52L297.41 251.52M290.65 252.31C290.65 249.19 292.77 247.26 295.00 247.26C297.46 247.26 298.86 249.02 298.86 251.76C298.86 252.11 298.83 252.45 298.78 252.68L292.27 252.68C292.39 254.72 293.64 256.03 295.48 256.03C296.41 256.03 297.17 255.74 297.89 255.27L298.47 256.33C297.62 256.88 296.60 257.33 295.28 257.33C292.71 257.33 290.65 255.46 290.65 252.31"/>
<path fill="#FFA400" fill-rule="nonzero" d="M301.04 247.50L302.39 247.50L302.53 249.25L302.58 249.25C303.25 248.03 304.24 247.26 305.33 247.26C305.76 247.26 306.06 247.32 306.36 247.46L306.05 248.89C305.72 248.78 305.50 248.73 305.12 248.73C304.30 248.73 303.33 249.31 302.67 250.93L302.67 257.09L301.04 257.09L301.04 247.50"/>
<path fill="#FFA400" fill-rule="nonzero" d="M312.07 244.14L319.59 244.14L319.59 245.54L313.73 245.54L313.73 249.59L318.67 249.59L318.67 250.99L313.73 250.99L313.73 255.70L319.79 255.70L319.79 257.09L312.07 257.09L312.07 244.14"/>
<path fill="#FFA400" fill-rule="nonzero" d="M321.39 256.00L322.20 254.93C323.04 255.60 323.89 256.06 325.05 256.06C326.32 256.06 326.95 255.39 326.95 254.57C326.95 253.59 325.81 253.15 324.74 252.76C323.38 252.27 321.86 251.60 321.86 249.99C321.86 248.45 323.09 247.27 325.19 247.27C326.39 247.27 327.44 247.75 328.19 248.34L327.41 249.38C326.75 248.89 326.06 248.53 325.21 248.53C323.99 248.53 323.43 249.17 323.43 249.90C323.43 250.82 324.48 251.16 325.57 251.57C326.97 252.09 328.52 252.65 328.52 254.48C328.52 256.03 327.27 257.33 324.99 257.33C323.62 257.33 322.30 256.75 321.39 256.00"/>
<path fill="#FFA400" fill-rule="nonzero" d="M331.14 254.13L331.14 248.82L329.70 248.82L329.70 247.59L331.21 247.50L331.41 244.81L332.78 244.81L332.78 247.50L335.39 247.50L335.39 248.82L332.78 248.82L332.78 254.15C332.78 255.33 333.16 256.00 334.27 256.00C334.61 256.00 335.06 255.88 335.37 255.75L335.69 256.97C335.14 257.15 334.50 257.33 333.89 257.33C331.84 257.33 331.14 256.03 331.14 254.13"/>
<path fill="#FFA400" fill-rule="nonzero" d="M337.49 247.50H339.13V257.09H337.49ZM337.19 244.48C337.19 243.85 337.69 243.43 338.32 243.43C338.96 243.43 339.45 243.85 339.45 244.48C339.45 245.09 338.96 245.53 338.32 245.53C337.69 245.53 337.19 245.09 337.19 244.48"/>
<path fill="#FFA400" fill-rule="nonzero" d="M341.87 247.50L343.22 247.50L343.36 248.89L343.42 248.89C344.26 247.99 345.27 247.26 346.42 247.26C347.90 247.26 348.69 247.97 349.09 249.09C350.09 248.01 351.10 247.26 352.28 247.26C354.26 247.26 355.22 248.57 355.22 251.01L355.22 257.09L353.58 257.09L353.58 251.22C353.58 249.44 353.01 248.67 351.79 248.67C351.04 248.67 350.26 249.16 349.36 250.15L349.36 257.09L347.73 257.09L347.73 251.22C347.73 249.44 347.16 248.67 345.93 248.67C345.21 248.67 344.40 249.16 343.51 250.15L343.51 257.09L341.87 257.09L341.87 247.50"/>
<path fill="#FFA400" fill-rule="nonzero" d="M357.86 253.58L357.86 247.50L359.50 247.50L359.50 253.37C359.50 255.15 360.04 255.92 361.32 255.92C362.31 255.92 363.00 255.43 363.91 254.30L363.91 247.50L365.55 247.50L365.55 257.09L364.19 257.09L364.06 255.59L364.00 255.59C363.11 256.63 362.14 257.33 360.82 257.33C358.78 257.33 357.86 256.02 357.86 253.58"/>
<path fill="#FFA400" fill-rule="nonzero" d="M368.31 255.16L368.31 243.04L369.95 243.04L369.95 255.28C369.95 255.78 370.17 255.98 370.41 255.98C370.50 255.98 370.58 255.98 370.76 255.94L370.99 257.17C370.75 257.26 370.47 257.33 370.04 257.33C368.82 257.33 368.31 256.55 368.31 255.16"/>
<path fill="#FFA400" fill-rule="nonzero" d="M378.14 254.75L378.14 252.09C374.91 252.47 373.81 253.26 373.81 254.49C373.81 255.58 374.56 256.02 375.50 256.02C376.44 256.02 377.21 255.57 378.14 254.75M372.21 254.60C372.21 252.51 374.02 251.47 378.14 251.02C378.14 249.79 377.73 248.60 376.15 248.60C375.03 248.60 374.02 249.13 373.27 249.63L372.63 248.52C373.52 247.94 374.87 247.26 376.42 247.26C378.78 247.26 379.78 248.82 379.78 251.21L379.78 257.09L378.43 257.09L378.29 255.94L378.24 255.94C377.31 256.70 376.24 257.33 375.04 257.33C373.42 257.33 372.21 256.33 372.21 254.60"/>
<path fill="#FFA400" fill-rule="nonzero" d="M382.46 247.50L383.81 247.50L383.95 249.25L384.00 249.25C384.67 248.03 385.66 247.26 386.75 247.26C387.18 247.26 387.48 247.32 387.78 247.46L387.47 248.89C387.14 248.78 386.92 248.73 386.54 248.73C385.72 248.73 384.74 249.31 384.09 250.93L384.09 257.09L382.46 257.09L382.46 247.50"/>
<path fill="#FFA400" fill-rule="nonzero" d="M391.85 244.97L394.66 241.69L395.81 242.77L392.69 245.78L391.85 244.97M394.71 254.75L394.71 252.09C391.48 252.47 390.38 253.26 390.38 254.49C390.38 255.58 391.13 256.02 392.08 256.02C393.01 256.02 393.78 255.57 394.71 254.75M388.78 254.60C388.78 252.51 390.60 251.47 394.71 251.02C394.71 249.79 394.30 248.60 392.72 248.60C391.60 248.60 390.60 249.13 389.84 249.63L389.20 248.52C390.09 247.94 391.44 247.26 392.99 247.26C395.35 247.26 396.35 248.82 396.35 251.21L396.35 257.09L395.00 257.09L394.86 255.94L394.81 255.94C393.89 256.70 392.81 257.33 391.61 257.33C389.99 257.33 388.78 256.33 388.78 254.60"/>
<path fill="#FFA400" fill-rule="nonzero" d="M403.38 247.50L404.73 247.50L404.87 248.89L404.92 248.89C405.77 247.99 406.78 247.26 407.93 247.26C409.41 247.26 410.20 247.97 410.60 249.09C411.60 248.01 412.61 247.26 413.78 247.26C415.77 247.26 416.72 248.57 416.72 251.01L416.72 257.09L415.09 257.09L415.09 251.22C415.09 249.44 414.52 248.67 413.29 248.67C412.54 248.67 411.76 249.16 410.87 250.15L410.87 257.09L409.23 257.09L409.23 251.22C409.23 249.44 408.66 248.67 407.44 248.67C406.71 248.67 405.91 249.16 405.01 250.15L405.01 257.09L403.38 257.09L403.38 247.50"/>
<path fill="#FFA400" fill-rule="nonzero" d="M419.42 247.50H421.06V257.09H419.42ZM419.12 244.48C419.12 243.85 419.62 243.43 420.25 243.43C420.89 243.43 421.38 243.85 421.38 244.48C421.38 245.09 420.89 245.53 420.25 245.53C419.62 245.53 419.12 245.09 419.12 244.48"/>
<path fill="#FFA400" fill-rule="nonzero" d="M428.44 244.14L435.96 244.14L435.96 245.54L430.10 245.54L430.10 249.59L435.05 249.59L435.05 250.99L430.10 250.99L430.10 255.70L436.16 255.70L436.16 257.09L428.44 257.09L428.44 244.14"/>
<path fill="#FFA400" fill-rule="nonzero" d="M437.76 256.00L438.57 254.93C439.41 255.60 440.26 256.06 441.42 256.06C442.69 256.06 443.32 255.39 443.32 254.57C443.32 253.59 442.18 253.15 441.11 252.76C439.76 252.27 438.23 251.60 438.23 249.99C438.23 248.45 439.47 247.27 441.56 247.27C442.77 247.27 443.82 247.75 444.57 248.34L443.79 249.38C443.12 248.89 442.44 248.53 441.58 248.53C440.37 248.53 439.80 249.17 439.80 249.90C439.80 250.82 440.85 251.16 441.95 251.57C443.34 252.09 444.90 252.65 444.90 254.48C444.90 256.03 443.65 257.33 441.37 257.33C440.00 257.33 438.67 256.75 437.76 256.00"/>
<path fill="#FFA400" fill-rule="nonzero" d="M453.59 252.16C453.59 250.05 452.86 248.63 451.04 248.63C450.22 248.63 449.40 249.08 448.46 249.94L448.46 254.96C449.34 255.69 450.18 255.96 450.81 255.96C452.41 255.96 453.59 254.53 453.59 252.16M446.82 247.50L448.18 247.50L448.31 248.61L448.37 248.61C449.24 247.89 450.33 247.26 451.45 247.26C453.95 247.26 455.28 249.19 455.28 252.15C455.28 255.42 453.30 257.33 451.10 257.33C450.21 257.33 449.30 256.92 448.42 256.22L448.46 257.89L448.46 261.13L446.82 261.13L446.82 247.50"/>
<path fill="#FFA400" fill-rule="nonzero" d="M457.53 247.50H459.17V257.09H457.53ZM457.23 244.97L460.04 241.69L461.19 242.77L458.07 245.78L457.23 244.97"/>
<path fill="#FFA400" fill-rule="nonzero" d="M468.86 247.50H470.49V257.09H468.86ZM468.56 244.48C468.56 243.85 469.05 243.43 469.69 243.43C470.32 243.43 470.82 243.85 470.82 244.48C470.82 245.09 470.32 245.53 469.69 245.53C469.05 245.53 468.56 245.09 468.56 244.48"/>
<path fill="#FFA400" fill-rule="nonzero" d="M473.73 254.13L473.73 248.82L472.29 248.82L472.29 247.59L473.80 247.50L474.00 244.81L475.37 244.81L475.37 247.50L477.99 247.50L477.99 248.82L475.37 248.82L475.37 254.15C475.37 255.33 475.75 256.00 476.86 256.00C477.20 256.00 477.65 255.88 477.96 255.75L478.28 256.97C477.74 257.15 477.09 257.33 476.49 257.33C474.43 257.33 473.73 256.03 473.73 254.13"/>
<path fill="#FFA400" fill-rule="nonzero" d="M479.88 253.58L479.88 247.50L481.52 247.50L481.52 253.37C481.52 255.15 482.06 255.92 483.34 255.92C484.33 255.92 485.02 255.43 485.93 254.30L485.93 247.50L487.57 247.50L487.57 257.09L486.21 257.09L486.08 255.59L486.02 255.59C485.13 256.63 484.16 257.33 482.84 257.33C480.80 257.33 479.88 256.02 479.88 253.58"/>
<path fill="#FFA400" fill-rule="nonzero" d="M461.90 247.50L463.25 247.50L463.38 249.25L463.44 249.25C464.11 248.03 465.10 247.26 466.19 247.26C466.61 247.26 466.92 247.32 467.22 247.46L466.91 248.89C466.58 248.78 466.36 248.73 465.98 248.73C465.16 248.73 464.18 249.31 463.53 250.93L463.53 257.09L461.90 257.09L461.90 247.50"/>
<path fill="#8E1537" fill-rule="nonzero" d="M228.51 157.70C228.38 167.07 225.26 174.40 219.22 179.49C213.14 184.63 205.81 187.23 197.43 187.23C189.32 187.23 182.12 184.63 176.04 179.49C170.02 174.40 166.96 167.08 166.96 157.72L166.96 67.05L148.01 67.05L148.01 157.52C148.01 172.24 152.88 184.05 162.50 192.60C172.08 201.12 183.90 205.44 197.63 205.44C211.64 205.44 223.53 201.12 232.98 192.59C242.45 184.04 247.33 172.25 247.47 157.52L247.47 67.05L228.51 67.05L228.51 157.70"/>
<path fill="#8E1537" fill-rule="nonzero" d="M280.00 203.84L364.13 203.84L364.13 185.63L298.96 185.63L298.96 143.65L347.18 143.65L347.18 125.44L298.96 125.44L298.96 85.26L364.13 85.26L364.13 67.05L280.00 67.05L280.00 203.84"/>
<path fill="#8E1537" fill-rule="nonzero" d="M472.93 136.92C463.68 131.87 452.59 128.15 439.93 125.85C430.60 124.54 423.04 122.30 417.47 119.17C412.13 116.18 409.72 111.41 410.11 104.55C410.11 99.11 412.58 94.42 417.65 90.20C422.72 85.99 429.74 83.86 438.53 83.86C444.58 83.86 450.41 85.20 455.88 87.85C461.20 90.43 464.67 94.14 466.20 98.88L466.49 99.80L485.77 97.75L485.48 96.47C483.24 86.57 477.94 78.83 469.75 73.47C461.62 68.14 451.11 65.45 438.53 65.45C424.13 65.45 412.49 69.22 403.92 76.68C395.31 84.17 390.95 93.55 390.95 104.55L390.95 104.56C391.23 125.98 404.86 139.16 431.48 143.73C456.79 148.08 469.62 155.28 469.62 165.14C469.62 173.32 466.64 178.92 460.53 182.27C454.28 185.69 446.88 187.29 438.53 187.03C428.34 187.03 421.10 185.68 417.03 183.02C412.99 180.37 410.16 176.60 408.62 171.81L408.32 170.87L389.27 173.15L389.55 174.41C391.64 184.16 396.54 191.86 404.11 197.29C411.64 202.70 423.22 205.45 438.53 205.45C454.41 205.45 466.77 201.98 475.26 195.15C483.82 188.25 488.16 178.16 488.16 165.09C487.60 151.60 482.47 142.13 472.93 136.92"/>
<path fill="#8E1537" fill-rule="nonzero" d="M148.09 228.57L148.09 217.92L150.41 217.92L150.41 228.64C150.41 233.00 152.26 234.37 154.63 234.37C157.04 234.37 158.95 233.00 158.95 228.64L158.95 217.92L161.17 217.92L161.17 228.57C161.17 234.40 158.35 236.40 154.63 236.40C150.92 236.40 148.09 234.40 148.09 228.57"/>
<path fill="#8E1537" fill-rule="nonzero" d="M165.20 222.63L167.08 222.63L167.27 224.57L167.35 224.57C168.63 223.31 170.02 222.30 171.87 222.30C174.71 222.30 175.99 224.12 175.99 227.55L175.99 236.07L173.70 236.07L173.70 227.84C173.70 225.34 172.95 224.27 171.16 224.27C169.78 224.27 168.83 224.97 167.48 226.33L167.48 236.07L165.20 236.07L165.20 222.63"/>
<path fill="#8E1537" fill-rule="nonzero" d="M179.75 222.63H182.03V236.07H179.75ZM179.34 218.40C179.34 217.50 180.02 216.93 180.91 216.93C181.80 216.93 182.49 217.50 182.49 218.40C182.49 219.26 181.80 219.87 180.91 219.87C180.02 219.87 179.34 219.26 179.34 218.40"/>
<path fill="#8E1537" fill-rule="nonzero" d="M184.50 222.63L186.85 222.63L189.40 230.26C189.81 231.57 190.24 232.94 190.65 234.22L190.76 234.22C191.16 232.94 191.60 231.57 192.00 230.26L194.55 222.63L196.78 222.63L192.02 236.07L189.37 236.07L184.50 222.63"/>
<path fill="#8E1537" fill-rule="nonzero" d="M207.46 228.26C207.46 225.57 206.24 224.11 204.13 224.11C202.24 224.11 200.55 225.62 200.27 228.26L207.46 228.26M198.03 229.36C198.03 224.99 200.99 222.30 204.09 222.30C207.53 222.30 209.47 224.76 209.47 228.60C209.47 229.08 209.43 229.56 209.36 229.89L200.29 229.89C200.45 232.74 202.20 234.59 204.77 234.59C206.06 234.59 207.12 234.17 208.12 233.51L208.94 235.00C207.75 235.77 206.32 236.40 204.49 236.40C200.89 236.40 198.03 233.78 198.03 229.36"/>
<path fill="#8E1537" fill-rule="nonzero" d="M212.55 222.63L214.43 222.63L214.62 225.08L214.70 225.08C215.64 223.37 217.02 222.30 218.53 222.30C219.13 222.30 219.55 222.37 219.97 222.57L219.54 224.57C219.08 224.42 218.78 224.35 218.24 224.35C217.10 224.35 215.74 225.16 214.83 227.44L214.83 236.07L212.55 236.07L212.55 222.63"/>
<path fill="#8E1537" fill-rule="nonzero" d="M220.93 234.53L222.06 233.03C223.23 233.97 224.42 234.63 226.04 234.63C227.81 234.63 228.69 233.69 228.69 232.54C228.69 231.16 227.10 230.54 225.60 229.99C223.72 229.30 221.58 228.38 221.58 226.11C221.58 223.96 223.31 222.30 226.23 222.30C227.91 222.30 229.38 222.98 230.42 223.81L229.33 225.26C228.40 224.58 227.45 224.07 226.26 224.07C224.56 224.07 223.78 224.97 223.78 225.99C223.78 227.27 225.24 227.76 226.77 228.33C228.71 229.06 230.88 229.84 230.88 232.40C230.88 234.58 229.14 236.40 225.96 236.40C224.05 236.40 222.20 235.59 220.93 234.53"/>
<path fill="#8E1537" fill-rule="nonzero" d="M233.60 222.63H235.88V236.07H233.60ZM233.18 218.40C233.18 217.50 233.87 216.93 234.76 216.93C235.65 216.93 236.33 217.50 236.33 218.40C236.33 219.26 235.65 219.87 234.76 219.87C233.87 219.87 233.18 219.26 233.18 218.40"/>
<path fill="#8E1537" fill-rule="nonzero" d="M248.54 232.65L248.54 225.61C247.39 224.59 246.35 224.21 245.25 224.21C243.10 224.21 241.39 226.28 241.39 229.34C241.39 232.57 242.72 234.48 245.08 234.48C246.33 234.48 247.41 233.88 248.54 232.65M239.03 229.36C239.03 225.01 241.79 222.30 244.86 222.30C246.43 222.30 247.45 222.88 248.64 223.85L248.54 221.55L248.54 216.37L250.82 216.37L250.82 236.07L248.94 236.07L248.74 234.48L248.67 234.48C247.62 235.52 246.19 236.40 244.58 236.40C241.21 236.40 239.03 233.84 239.03 229.36"/>
<path fill="#8E1537" fill-rule="nonzero" d="M262.16 232.79L262.16 229.05C257.64 229.60 256.12 230.70 256.12 232.42C256.12 233.94 257.16 234.56 258.48 234.56C259.78 234.56 260.85 233.93 262.16 232.79M253.88 232.58C253.88 229.65 256.42 228.19 262.16 227.56C262.15 225.83 261.58 224.17 259.38 224.17C257.82 224.17 256.42 224.91 255.36 225.61L254.47 224.05C255.71 223.24 257.60 222.30 259.76 222.30C263.05 222.30 264.44 224.48 264.44 227.82L264.44 236.06L262.56 236.06L262.36 234.46L262.29 234.46C261.00 235.52 259.50 236.40 257.83 236.40C255.58 236.40 253.88 235.00 253.88 232.58"/>
<path fill="#8E1537" fill-rule="nonzero" d="M277.05 232.65L277.05 225.61C275.90 224.59 274.86 224.21 273.76 224.21C271.61 224.21 269.89 226.28 269.89 229.34C269.89 232.57 271.23 234.48 273.59 234.48C274.84 234.48 275.92 233.88 277.05 232.65M267.54 229.36C267.54 225.01 270.30 222.30 273.37 222.30C274.94 222.30 275.96 222.88 277.15 223.85L277.05 221.55L277.05 216.37L279.33 216.37L279.33 236.07L277.45 236.07L277.25 234.48L277.18 234.48C276.13 235.52 274.69 236.40 273.09 236.40C269.72 236.40 267.54 233.84 267.54 229.36"/>
<path fill="#8E1537" fill-rule="nonzero" d="M289.92 217.92L300.40 217.92L300.40 219.88L292.23 219.88L292.23 225.56L299.13 225.56L299.13 227.52L292.23 227.52L292.23 234.11L300.68 234.11L300.68 236.06L289.92 236.06L289.92 217.92"/>
<path fill="#8E1537" fill-rule="nonzero" d="M302.96 234.53L304.08 233.03C305.25 233.97 306.44 234.63 308.06 234.63C309.83 234.63 310.71 233.69 310.71 232.54C310.71 231.16 309.12 230.54 307.63 229.99C305.74 229.30 303.61 228.38 303.61 226.11C303.61 223.96 305.34 222.30 308.26 222.30C309.93 222.30 311.40 222.98 312.45 223.81L311.36 225.26C310.43 224.58 309.47 224.07 308.28 224.07C306.59 224.07 305.80 224.97 305.80 225.99C305.80 227.27 307.27 227.76 308.79 228.33C310.74 229.06 312.90 229.84 312.90 232.40C312.90 234.58 311.17 236.40 307.99 236.40C306.07 236.40 304.22 235.59 302.96 234.53"/>
<path fill="#8E1537" fill-rule="nonzero" d="M316.60 231.91L316.60 224.48L314.59 224.48L314.59 222.76L316.70 222.63L316.98 218.86L318.88 218.86L318.88 222.63L322.53 222.63L322.53 224.48L318.88 224.48L318.88 231.95C318.88 233.59 319.41 234.54 320.96 234.54C321.44 234.54 322.06 234.36 322.50 234.18L322.94 235.90C322.18 236.16 321.28 236.40 320.44 236.40C317.57 236.40 316.60 234.58 316.60 231.91"/>
<path fill="#8E1537" fill-rule="nonzero" d="M333.09 232.79L333.09 229.05C328.57 229.60 327.04 230.70 327.04 232.42C327.04 233.94 328.08 234.56 329.41 234.56C330.71 234.56 331.78 233.93 333.09 232.79M324.81 232.58C324.81 229.65 327.34 228.19 333.09 227.56C333.08 225.83 332.51 224.17 330.31 224.17C328.75 224.17 327.34 224.91 326.29 225.61L325.39 224.05C326.63 223.24 328.52 222.30 330.69 222.30C333.98 222.30 335.37 224.48 335.37 227.82L335.37 236.06L333.48 236.06L333.29 234.46L333.21 234.46C331.93 235.52 330.43 236.40 328.76 236.40C326.50 236.40 324.81 235.00 324.81 232.58"/>
<path fill="#8E1537" fill-rule="nonzero" d="M339.41 231.91L339.41 224.48L337.41 224.48L337.41 222.76L339.52 222.63L339.79 218.86L341.69 218.86L341.69 222.63L345.35 222.63L345.35 224.48L341.69 224.48L341.69 231.95C341.69 233.59 342.23 234.54 343.78 234.54C344.26 234.54 344.88 234.36 345.31 234.18L345.75 235.90C345.00 236.16 344.10 236.40 343.25 236.40C340.38 236.40 339.41 234.58 339.41 231.91"/>
<path fill="#8E1537" fill-rule="nonzero" d="M355.90 232.79L355.90 229.05C351.38 229.60 349.86 230.70 349.86 232.42C349.86 233.94 350.90 234.56 352.22 234.56C353.52 234.56 354.60 233.93 355.90 232.79M347.62 232.58C347.62 229.65 350.16 228.19 355.90 227.56C355.90 225.83 355.32 224.17 353.12 224.17C351.56 224.17 350.16 224.91 349.10 225.61L348.21 224.05C349.45 223.24 351.34 222.30 353.50 222.30C356.79 222.30 358.18 224.48 358.18 227.82L358.18 236.06L356.30 236.06L356.10 234.46L356.03 234.46C354.74 235.52 353.24 236.40 351.57 236.40C349.32 236.40 347.62 235.00 347.62 232.58"/>
<path fill="#8E1537" fill-rule="nonzero" d="M361.94 233.37L361.94 216.37L364.22 216.37L364.22 233.53C364.22 234.23 364.52 234.50 364.85 234.50C364.98 234.50 365.10 234.50 365.35 234.45L365.66 236.18C365.34 236.30 364.95 236.40 364.35 236.40C362.64 236.40 361.94 235.31 361.94 233.37"/>
<path fill="#8E1537" fill-rule="nonzero" d="M383.38 232.65L383.38 225.61C382.23 224.59 381.19 224.21 380.09 224.21C377.94 224.21 376.22 226.28 376.22 229.34C376.22 232.57 377.56 234.48 379.92 234.48C381.17 234.48 382.25 233.88 383.38 232.65M373.87 229.36C373.87 225.01 376.62 222.30 379.70 222.30C381.26 222.30 382.29 222.88 383.47 223.85L383.38 221.55L383.38 216.37L385.66 216.37L385.66 236.07L383.77 236.07L383.58 234.48L383.51 234.48C382.46 235.52 381.02 236.40 379.42 236.40C376.05 236.40 373.87 233.84 373.87 229.36"/>
<path fill="#8E1537" fill-rule="nonzero" d="M398.25 228.26C398.25 225.57 397.04 224.11 394.93 224.11C393.04 224.11 391.35 225.62 391.07 228.26L398.25 228.26M388.83 229.36C388.83 224.99 391.79 222.30 394.89 222.30C398.33 222.30 400.27 224.76 400.27 228.60C400.27 229.08 400.23 229.56 400.16 229.89L391.09 229.89C391.25 232.74 393.00 234.59 395.57 234.59C396.86 234.59 397.92 234.17 398.92 233.51L399.74 235.00C398.55 235.77 397.12 236.40 395.29 236.40C391.69 236.40 388.83 233.78 388.83 229.36"/>
<path fill="#8E1537" fill-rule="nonzero" d="M408.30 233.70L409.68 232.12C410.99 233.47 412.81 234.37 414.70 234.37C417.09 234.37 418.51 233.18 418.51 231.42C418.51 229.57 417.19 228.97 415.47 228.23L412.86 227.08C411.16 226.36 409.17 225.07 409.17 222.41C409.17 219.63 411.60 217.59 414.90 217.59C417.06 217.59 418.98 218.52 420.26 219.84L419.03 221.32C417.92 220.27 416.58 219.62 414.90 219.62C412.86 219.62 411.51 220.65 411.51 222.27C411.51 224.02 413.10 224.67 414.52 225.27L417.12 226.39C419.22 227.29 420.86 228.54 420.86 231.24C420.86 234.11 418.49 236.40 414.66 236.40C412.11 236.40 409.89 235.36 408.30 233.70"/>
<path fill="#8E1537" fill-rule="nonzero" d="M433.41 229.36C433.41 226.28 431.84 224.19 429.52 224.19C427.20 224.19 425.63 226.28 425.63 229.36C425.63 232.44 427.20 234.50 429.52 234.50C431.84 234.50 433.41 232.44 433.41 229.36M423.27 229.36C423.27 224.88 426.21 222.30 429.52 222.30C432.82 222.30 435.76 224.88 435.76 229.36C435.76 233.81 432.82 236.40 429.52 236.40C426.21 236.40 423.27 233.81 423.27 229.36"/>
<path fill="#8E1537" fill-rule="nonzero" d="M438.92 222.63L440.81 222.63L441.00 224.57L441.08 224.57C442.36 223.31 443.75 222.30 445.60 222.30C448.44 222.30 449.71 224.12 449.71 227.55L449.71 236.07L447.43 236.07L447.43 227.84C447.43 225.34 446.67 224.27 444.89 224.27C443.51 224.27 442.56 224.97 441.20 226.33L441.20 236.07L438.92 236.07L438.92 222.63"/>
<path fill="#8E1537" fill-rule="nonzero" d="M462.91 229.36C462.91 226.28 461.34 224.19 459.02 224.19C456.70 224.19 455.13 226.28 455.13 229.36C455.13 232.44 456.70 234.50 459.02 234.50C461.34 234.50 462.91 232.44 462.91 229.36M452.78 229.36C452.78 224.88 455.72 222.30 459.02 222.30C462.33 222.30 465.27 224.88 465.27 229.36C465.27 233.81 462.33 236.40 459.02 236.40C455.72 236.40 452.78 233.81 452.78 229.36"/>
<path fill="#8E1537" fill-rule="nonzero" d="M468.43 222.63L470.31 222.63L470.50 225.08L470.58 225.08C471.52 223.37 472.89 222.30 474.41 222.30C475.01 222.30 475.43 222.37 475.85 222.57L475.42 224.57C474.96 224.42 474.66 224.35 474.12 224.35C472.98 224.35 471.62 225.16 470.71 227.44L470.71 236.07L468.43 236.07L468.43 222.63"/>
<path fill="#8E1537" fill-rule="nonzero" d="M485.56 232.79L485.56 229.05C481.05 229.60 479.52 230.70 479.52 232.42C479.52 233.94 480.56 234.56 481.88 234.56C483.18 234.56 484.26 233.93 485.56 232.79M477.28 232.58C477.28 229.65 479.82 228.19 485.56 227.56C485.56 225.83 484.98 224.17 482.78 224.17C481.22 224.17 479.82 224.91 478.76 225.61L477.87 224.05C479.11 223.24 481.00 222.30 483.16 222.30C486.45 222.30 487.84 224.48 487.84 227.82L487.84 236.06L485.96 236.06L485.77 234.46L485.69 234.46C484.41 235.52 482.91 236.40 481.23 236.40C478.98 236.40 477.28 235.00 477.28 232.58"/>
</svg>